<?xml version="1.0" encoding="UTF-8"?>
<svg id="Capa_2" data-name="Capa 2" xmlns="http://www.w3.org/2000/svg" xmlns:xlink="http://www.w3.org/1999/xlink" viewBox="0 0 480.96 174.51">
  <defs>
    <style>
      .cls-1 {
        clip-rule: evenodd;
      }

      .cls-1, .cls-2, .cls-3 {
        fill: #fff;
      }

      .cls-2, .cls-4, .cls-5 {
        fill-rule: evenodd;
      }

      .cls-6, .cls-4 {
        fill: #e2b3cf;
      }

      .cls-7 {
        clip-path: url(#clippath);
      }

      .cls-5 {
        fill: url(#Degradado_sin_nombre_149);
        opacity: .55;
      }
    </style>
    <clipPath id="clippath">
      <path class="cls-1" d="M72.75,97.73c2.92-2.79,6.11-5.86,9.57-9.21,3.46-3.34,6.66-7.05,9.57-11.12,2.92-4.07,5.35-8.57,7.29-13.49,1.94-4.92,2.92-10.42,2.92-16.5,0-7.41-1.37-14.04-4.1-19.87-2.74-5.83-6.38-10.79-10.94-14.86-4.56-4.07-9.85-7.2-15.86-9.39C65.18,1.09,58.83,0,52.14,0,46.07,0,39.93,1.03,33.73,3.1c-6.2,2.07-11.79,5.2-16.77,9.39-4.99,4.19-9.06,9.54-12.22,16.04C1.58,35.04,0,42.66,0,51.42c0,2.32,1.88,4.19,4.19,4.19h27.17c2.32,0,4.19-1.88,4.19-4.19,0-5.22,1.52-9.21,4.56-11.94,3.04-2.74,6.87-4.1,11.49-4.1,4.25,0,7.59,1.13,10.03,3.37,2.43,2.25,3.65,5.14,3.65,8.66,0,1.82-.34,3.59-1,5.29-.67,1.7-1.67,3.44-3.01,5.2-1.34,1.76-3.07,3.71-5.2,5.83-2.13,2.13-4.65,4.53-7.57,7.2L3.88,111.96c-2.04,1.89-3.21,4.55-3.21,7.33v19.42c0,5.51,4.47,9.98,9.98,9.98l41.91-.03v-4.57c0-7.29,5.83-13.24,12.98-13.24h19.9c6.56,0,12,5.01,12.85,11.47.04-.31.07-.63.07-.96v-29.23c0-4.01-3.25-7.27-7.27-7.27l-20.77.05c-1.72,0-2.59-2.07-1.39-3.3l3.81-3.9Z"/>
    </clipPath>
    <linearGradient id="Degradado_sin_nombre_149" data-name="Degradado sin nombre 149" x1="27.47" y1="121.89" x2="100.81" y2="121.89" gradientUnits="userSpaceOnUse">
      <stop offset="0" stop-color="#1d1d1b"/>
      <stop offset="1" stop-color="#1d1d1b" stop-opacity="0"/>
    </linearGradient>
  </defs>
  <g id="Capa_1-2" data-name="Capa 1">
    <g>
      <g>
        <g>
          <path class="cls-4" d="M150.47,118.78c0-7.15-5.83-12.98-12.98-12.98h-19.9c-7.15,0-12.98,5.83-12.98,12.98v54.73h45.86v-54.73"/>
          <path class="cls-4" d="M202.57,66.67c0-7.15-5.83-12.98-12.98-12.98h-19.9c-7.15,0-12.98,5.83-12.98,12.98v106.83h45.86v-106.83"/>
          <path class="cls-4" d="M46.38,173.51v-4.49c0-7.29-5.83-13.24-12.98-13.24H13.5c-7.15,0-12.98,5.95-12.98,13.24v4.49h45.86Z"/>
          <path class="cls-3" d="M109.08,6.52c0-3.08,2.5-5.59,5.59-5.59h14.7c3.4,0,6.4.58,8.99,1.74,2.6,1.16,4.75,2.74,6.47,4.74,1.72,2,3.02,4.32,3.89,6.98.88,2.65,1.32,5.45,1.32,8.41s-.44,5.81-1.32,8.46c-.88,2.65-2.18,4.97-3.89,6.95-1.72,1.98-3.88,3.55-6.47,4.71-2.6,1.16-5.59,1.74-8.99,1.74h-14.7c-3.08,0-5.59-2.5-5.59-5.59V6.52ZM120.28,11.81v22.02h8.24c1.68,0,3.16-.27,4.43-.81,1.27-.54,2.33-1.3,3.19-2.27.86-.97,1.5-2.13,1.93-3.47.43-1.34.64-2.84.64-4.48,0-3.29-.86-5.94-2.58-7.96-1.72-2.02-4.26-3.03-7.62-3.03h-8.24Z"/>
        </g>
        <path class="cls-2" d="M189.59,0h-19.9c-7.14,0-12.98,5.84-12.98,12.98v19.9c0,.49.03.98.08,1.46.46,4.02-.82,7.67-3.68,10.53l-3.63,3.63c-2.86,2.86-6.51,4.14-10.53,3.68-.48-.05-.97-.08-1.46-.08h-19.9c-7.14,0-12.98,5.84-12.98,12.98v19.9c0,7.14,5.84,12.98,12.98,12.98h19.9c7.14,0,12.98-5.84,12.98-12.98v-19.9c0-.49-.03-.98-.08-1.46-.46-4.02.82-7.67,3.68-10.53l3.63-3.63c2.86-2.86,6.51-4.14,10.53-3.68.48.05.97.08,1.46.08h19.9c7.14,0,12.98-5.84,12.98-12.98V12.98c0-7.14-5.84-12.98-12.98-12.98ZM192.1,27.94c-.71,1.6-1.68,3-2.91,4.2-1.23,1.2-2.67,2.14-4.31,2.84-1.64.7-3.39,1.05-5.24,1.05s-3.57-.35-5.21-1.05c-1.64-.7-3.08-1.64-4.31-2.84-1.23-1.2-2.2-2.6-2.92-4.2-.72-1.6-1.08-3.32-1.08-5.14s.36-3.54,1.08-5.14c.72-1.6,1.69-3,2.92-4.2,1.23-1.2,2.67-2.14,4.31-2.84,1.64-.7,3.38-1.05,5.21-1.05s3.6.35,5.24,1.05c1.64.7,3.08,1.64,4.31,2.84,1.23,1.2,2.2,2.6,2.91,4.2.71,1.6,1.06,3.32,1.06,5.14s-.35,3.54-1.06,5.14Z"/>
        <g>
          <path class="cls-2" d="M72.75,97.73c2.92-2.79,6.11-5.86,9.57-9.21,3.46-3.34,6.66-7.05,9.57-11.12,2.92-4.07,5.35-8.57,7.29-13.49,1.94-4.92,2.92-10.42,2.92-16.5,0-7.41-1.37-14.04-4.1-19.87-2.74-5.83-6.38-10.79-10.94-14.86-4.56-4.07-9.85-7.2-15.86-9.39C65.18,1.09,58.83,0,52.14,0,46.07,0,39.93,1.03,33.73,3.1c-6.2,2.07-11.79,5.2-16.77,9.39-4.99,4.19-9.06,9.54-12.22,16.04C1.58,35.04,0,42.66,0,51.42c0,2.32,1.88,4.19,4.19,4.19h27.17c2.32,0,4.19-1.88,4.19-4.19,0-5.22,1.52-9.21,4.56-11.94,3.04-2.74,6.87-4.1,11.49-4.1,4.25,0,7.59,1.13,10.03,3.37,2.43,2.25,3.65,5.14,3.65,8.66,0,1.82-.34,3.59-1,5.29-.67,1.7-1.67,3.44-3.01,5.2-1.34,1.76-3.07,3.71-5.2,5.83-2.13,2.13-4.65,4.53-7.57,7.2L3.88,111.96c-2.04,1.89-3.21,4.55-3.21,7.33v19.42c0,5.51,4.47,9.98,9.98,9.98l41.91-.03v-4.57c0-7.29,5.83-13.24,12.98-13.24h19.9c6.56,0,12,5.01,12.85,11.47.04-.31.07-.63.07-.96v-29.23c0-4.01-3.25-7.27-7.27-7.27l-20.77.05c-1.72,0-2.59-2.07-1.39-3.3l3.81-3.9Z"/>
          <g class="cls-7">
            <path class="cls-5" d="M75.88,95.09s-25.61,24.05-45.01,41.73c-5.65,5.15-3.28,11.88,0,11.86s65.95,0,65.95,0l3.99-6.36-1.99-39.99-10.44-2.35-12.49-4.89Z"/>
          </g>
        </g>
        <path class="cls-4" d="M91.09,148.64l-38.53.02v24.85h45.86v-29.42c0-.6-.05-1.19-.13-1.77-.47,3.56-3.51,6.31-7.2,6.31Z"/>
      </g>
      <path class="cls-3" d="M216.95,84.44h74.67c.79,0,1.43.64,1.43,1.43v19.06c0,.79-.64,1.43-1.43,1.43h-24.6c-.79,0-1.43.64-1.43,1.43v63.37c0,.79-.64,1.43-1.43,1.43h-19.74c-.79,0-1.43-.64-1.43-1.43v-63.37c0-.79-.64-1.43-1.43-1.43h-24.6c-.79,0-1.43-.64-1.43-1.43v-19.06c0-.79.64-1.43,1.43-1.43Z"/>
      <path class="cls-3" d="M399.92,173.34v-85.81c0-.65.53-1.18,1.18-1.18h17.47c.36,0,.7.16.92.44l36.88,46.21c.69.87,2.1.38,2.1-.73v-44.74c0-.65.53-1.18,1.18-1.18h20.14c.65,0,1.18.53,1.18,1.18v85.81c0,.65-.53,1.18-1.18,1.18h-17.36c-.36,0-.7-.16-.92-.44l-36.88-46.11c-.69-.87-2.1-.38-2.1.73v44.64c0,.65-.53,1.18-1.18,1.18h-20.25c-.65,0-1.18-.53-1.18-1.18Z"/>
      <g>
        <path class="cls-3" d="M386.48,110.93c-2.45-5.54-5.8-10.38-10.06-14.52-.81-.79-1.62-1.01-2.52-.86-1.05.18-1.69,1.08-1.69,1.08l-10.2,15.16c-.42.63-.37,1.45.11,2.04,1.33,1.65,2.47,3.47,3.34,5.53,1.24,2.94,1.87,6.07,1.87,9.38s-.62,6.44-1.87,9.38c-1.24,2.94-2.94,5.48-5.09,7.63-2.15,2.15-4.67,3.84-7.57,5.09-2.9,1.24-6.05,1.86-9.44,1.86s-6.43-.62-9.32-1.86c-2.9-1.24-5.45-2.94-7.63-5.09-2.19-2.15-3.9-4.69-5.14-7.63-1.24-2.94-1.87-6.06-1.87-9.38s.62-6.44,1.87-9.38c.86-2.04,2.01-3.85,3.35-5.5.48-.59.54-1.41.12-2.05l-10.25-15.23s-.8-.96-1.51-1.06c-1.09-.15-1.77.12-2.56.89-4.26,4.14-7.63,8.99-10.12,14.52-2.49,5.54-3.73,11.47-3.73,17.8s1.24,12.26,3.73,17.8c2.49,5.54,5.86,10.38,10.12,14.52,4.26,4.14,9.23,7.42,14.92,9.83,5.69,2.41,11.7,3.62,18.03,3.62s12.45-1.21,18.14-3.62c5.69-2.41,10.66-5.69,14.92-9.83,4.26-4.14,7.61-8.99,10.06-14.52,2.45-5.54,3.67-11.47,3.67-17.8s-1.23-12.26-3.67-17.8Z"/>
        <path class="cls-6" d="M362.8,85c-6.1-2.58-12.58-3.88-19.45-3.88s-13.23,1.29-19.33,3.88c-2.13.9-4.15,1.93-6.08,3.07-.88.52-1.13,1.7-.56,2.55l11.45,17c.37.55,1.09.7,1.66.36.91-.54,1.86-1.04,2.86-1.47,3.11-1.33,6.44-2,10-2s7.01.67,10.12,2c.97.42,1.89.9,2.77,1.43.57.34,1.29.19,1.66-.36l11.45-17.01c.57-.85.33-2.03-.56-2.55-1.91-1.12-3.89-2.13-5.99-3.02Z"/>
      </g>
      <g>
        <path class="cls-3" d="M328.62.8l27.81,68.87c.34.84-.28,1.75-1.18,1.75h-17.19c-.53,0-1-.33-1.19-.82l-3.32-8.79c-.19-.5-.66-.82-1.19-.82h-26.35c-.53,0-1,.33-1.19.82l-3.32,8.79c-.19.5-.66.82-1.19.82h-17.19c-.9,0-1.52-.91-1.18-1.75L309.85.79c.19-.48.66-.79,1.18-.79h16.41c.52,0,.99.32,1.18.8ZM318.04,26.63l-6.03,16.06c-.31.83.3,1.72,1.19,1.72h11.99c.89,0,1.5-.88,1.19-1.72l-5.96-16.06c-.41-1.1-1.97-1.11-2.39,0Z"/>
        <path class="cls-3" d="M349.69,0h60.59c.61,0,1.11.5,1.11,1.11v15.54c0,.61-.5,1.11-1.11,1.11h-20.02c-.61,0-1.11.5-1.11,1.11v51.43c0,.61-.5,1.11-1.11,1.11h-16.09c-.61,0-1.11-.5-1.11-1.11V18.88c0-.61-.5-1.11-1.11-1.11h-20.02c-.61,0-1.11-.5-1.11-1.11V1.11c0-.61.5-1.11,1.11-1.11Z"/>
        <path class="cls-3" d="M451.19.7l27.94,69.19c.3.73-.24,1.53-1.03,1.53h-17.54c-.46,0-.88-.29-1.04-.72l-3.39-9c-.16-.43-.58-.72-1.04-.72h-26.57c-.46,0-.88.29-1.04.72l-3.39,9c-.16.43-.58.72-1.04.72h-17.54c-.79,0-1.33-.8-1.03-1.53L432.49.7c.17-.42.58-.7,1.03-.7h16.63c.45,0,.86.28,1.03.7ZM440.79,26.23l-6.26,16.67c-.27.73.26,1.51,1.04,1.51h12.45c.78,0,1.32-.77,1.04-1.5l-6.19-16.67c-.36-.97-1.73-.97-2.09,0Z"/>
        <path class="cls-3" d="M215.52.92h33.15c5.55,0,10.45.95,14.7,2.84,4.24,1.89,7.77,4.47,10.58,7.74,2.81,3.27,4.93,7.07,6.36,11.4,1.43,4.34,2.15,8.91,2.15,13.73s-.72,9.49-2.15,13.83c-1.44,4.33-3.56,8.12-6.36,11.35-2.81,3.24-6.33,5.8-10.58,7.69-4.24,1.89-9.14,2.84-14.7,2.84h-33.15V.92ZM233.83,18.69v35.98h13.46c2.75,0,5.16-.44,7.23-1.33,2.07-.88,3.81-2.12,5.22-3.71,1.4-1.59,2.46-3.48,3.16-5.68.7-2.2,1.05-4.64,1.05-7.33,0-5.37-1.4-9.71-4.21-13-2.81-3.3-6.96-4.94-12.45-4.94h-13.46Z"/>
      </g>
    </g>
  </g>
</svg>